<svg xmlns="http://www.w3.org/2000/svg" xmlns:xlink="http://www.w3.org/1999/xlink" width="434.5" height="71.644" viewBox="0 0 434.5 71.644"><defs><clipPath id="a"><rect width="80.7" height="71.644" fill="none"/></clipPath><clipPath id="b"><rect width="341.5" height="26.541" fill="none"/></clipPath></defs><g transform="translate(-360 -8889)"><g transform="translate(360 8889)"><g clip-path="url(#a)"><path d="M344.087,195.567a3.859,3.859,0,1,1-3.859-3.859,3.859,3.859,0,0,1,3.859,3.859" transform="translate(-273.948 -156.132)" fill="#009de8"/><path d="M107.469,47a2.86,2.86,0,0,0-1.677-3.866,3.31,3.31,0,0,0-3.987,1.761c-1.332,2.363-8.239,15.4-9.4,17.565s-2.616,5.252-3.826,4.78c-1.111-.434-2.415-5.179-2.97-6.534-.986-2.408-3-5.271-6.358-4.548-2.569.549-4.032,2.568-6.363,7.023a42.618,42.618,0,0,1-3.246,5.643c-2.39,3.253-3.727-2.1-4.511-4.865-1.052-3.714-2.975-8.968-7.185-8.968-2.352,0-4.862,1.374-7.99,6.421-1.825,2.944-6.1,11.189-6.728,12.656A2.892,2.892,0,0,0,44.7,78a3.187,3.187,0,0,0,4.021-1.45c3-4.645,3.824-6.46,5.358-8.6,1.643-2.27,3.873-4.306,5.571,1.161,1.068,3.441,2.935,9.086,7.984,9.128,3.038.025,6.188-2.593,7.663-5.092,1.668-2.826,2.088-4.336,3.359-5.7.649-.695,1.612-.945,2.52,1.077.876,1.954,2.687,8.13,5.926,9.481,4.571,1.906,8.889-7.34,10.381-10.289,1.2-2.376,9.462-19.474,9.992-20.722" transform="translate(-34.983 -34.984)" fill="#009de8"/><path d="M54.489,270.441a24.787,24.787,0,0,1,1.629,2.727.414.414,0,0,1-.33.586H52.831a.686.686,0,0,1-.631-.4,57.057,57.057,0,0,0-5.02-7.6.393.393,0,0,1,.306-.641h2.766a1.009,1.009,0,0,1,.768.445c.509.644.935,1.179,1.513,1.974a8.834,8.834,0,0,0,4.39-5.588c.053-.19.061-.574-.42-.574l-11.151,0a.559.559,0,0,1-.559-.559l0-2.078a.558.558,0,0,1,.559-.559l14.807,0c.712,0,.765.455.754.69-.264,5.831-2.632,8.909-6.428,11.568" transform="translate(-36.481 -210.268)" fill="#1a1311"/><path d="M142.712,272.413a.559.559,0,0,1-.559.559h-2.306a.559.559,0,0,1-.559-.559v-6.654a22.651,22.651,0,0,1-6.532,1.624.588.588,0,0,1-.675-.569v-2.089c0-.354.26-.536.583-.6,6.716-1.112,9.916-4.1,10.945-6.442a.76.76,0,0,1,.667-.445c.812,0,2.366-.007,2.648-.009a.5.5,0,0,1,.515.629,12.742,12.742,0,0,1-4.727,6.282Z" transform="translate(-107.57 -209.491)" fill="#1a1311"/><path d="M228.67,261.009l4.59,0a.559.559,0,0,1,.559.559v2.061a.559.559,0,0,1-.559.559l-4.627.006c-.334,5.716-3.26,8.151-9.114,8.952a.545.545,0,0,1-.6-.5v-2.127c0-.413.33-.514.543-.57,3.776-.768,5.511-2.011,5.746-5.755l-6.943,0a.559.559,0,0,1-.559-.559v-2.077a.559.559,0,0,1,.559-.559l6.982,0v-3.238a.559.559,0,0,1,.559-.559h2.308a.559.559,0,0,1,.559.559Z" transform="translate(-177.304 -209.481)" fill="#1a1311"/><path d="M375.886,259.641h-1.495a.564.564,0,0,1-.6-.364c-.186-.519-.524-1.535-.563-1.66a.315.315,0,0,1,.323-.415h1.674a.524.524,0,0,1,.523.354c.033.1.335,1.041.519,1.593.092.277-.034.493-.384.493" transform="translate(-303.957 -209.471)" fill="#1a1311"/><path d="M358.153,259.641h-1.505a.565.565,0,0,1-.6-.364c-.186-.519-.523-1.535-.563-1.66a.316.316,0,0,1,.323-.415h1.674a.523.523,0,0,1,.522.354c.033.1.345,1.041.529,1.593.093.277-.034.493-.384.493" transform="translate(-289.506 -209.471)" fill="#1a1311"/><path d="M329.3,272.387a.559.559,0,0,1-.56.559l-9.219,0c-3.108,0-4.487-1.149-4.487-4.272V257.764a.56.56,0,0,1,.559-.559h2.2a.559.559,0,0,1,.559.559v3.25h10.154a.559.559,0,0,1,.559.559v2.059a.559.559,0,0,1-.559.559H318.359v3.794c0,1.418.618,1.751,1.926,1.751l8.459,0a.56.56,0,0,1,.56.559Z" transform="translate(-256.575 -209.475)" fill="#1a1311"/></g></g><g transform="translate(-125 -86)"><g transform="translate(578 8998)"><g transform="translate(0 0)" clip-path="url(#b)"><path d="M14.2,7.532a15.449,15.449,0,0,1-1.689,3.182L9.576,8.722c.111-.138.166-.194.221-.277H7.362v1.744a19.18,19.18,0,0,0,3.875,5.2l-2.021,2.8a17.2,17.2,0,0,1-1.854-3.432V26.435H4.18V14.894a20.412,20.412,0,0,1-2.906,6.172L0,16.72A25.455,25.455,0,0,0,3.875,8.445H.526V5.235H4.18V.419H7.362V5.235h3.044v2.3a20.764,20.764,0,0,0,2.214-6.394l3.321.388c-.166.775-.3,1.412-.664,2.768h1.744V.419h3.265V4.294h5.729V7.532H20.287v3.321h6.227v3.293h-5.2a19.758,19.758,0,0,0,5.673,6.67l-1.55,3.764a20.312,20.312,0,0,1-5.148-7v8.857H17.022V17.606A20.808,20.808,0,0,1,11.237,24.5L9.189,21.342a21.234,21.234,0,0,0,6.836-7.2H10.407V10.853h6.615V7.532Z" transform="translate(0 -0.17)" fill="#1a1311"/><path d="M51.872,21.947c1.605-.138,3.156-.277,5.563-.553V14H52.453V10.683h13.2V14h-4.76v6.92c2.353-.332,4.152-.637,5.646-.886l.028,3.321c-3.875.83-9.161,1.522-14.226,2.131ZM74.733,4.372h3.21V7.694H69.89c.387,9.493,2.851,14.281,4.124,14.281,1,0,1.66-2.408,2.048-3.958l2.3,2.767c-.277,1.218-1.3,5.536-4.041,5.536-1.467,0-7.251-1.246-7.943-18.626H52.01V4.372H66.263C66.236,3.6,66.181.8,66.181.221h3.57c0,.443.027,2.38.055,4.151h3.93A16.987,16.987,0,0,0,70.609,1.8L73.072,0a14.192,14.192,0,0,1,3.681,2.905Z" transform="translate(-21.041 0)" fill="#1a1311"/><path d="M107.868,9.32a38.2,38.2,0,0,1-4.456,2.325l-1.716-3.4c6.725-2.629,10.019-5.7,11.514-7.915h3.93c1.494,1.882,4.207,4.981,11.43,7.915L126.8,11.617a26.985,26.985,0,0,1-4.373-2.353v1.577H107.868ZM123.92,26.673c-.3-.553-.5-.969-1.107-1.965A171.238,171.238,0,0,1,103.55,25.9l-.443-3.487c.36,0,3.321.028,3.957.028a41,41,0,0,0,2.38-5.729H102.8V13.472h24.631V16.71H113.4c-1.051,2.463-1.744,4.041-2.6,5.7.886,0,5.507-.111,10.046-.47-.609-.831-1.328-1.744-2.8-3.432l2.934-1.577a44.159,44.159,0,0,1,6.089,7.943Zm-3.681-18.9a27.525,27.525,0,0,1-5.093-4.677,22.052,22.052,0,0,1-4.981,4.677Z" transform="translate(-41.251 -0.132)" fill="#1a1311"/><path d="M159.594,26.452h-3.459V16.405a30.464,30.464,0,0,1-3.155,2.463l-1.135-3.791A19.683,19.683,0,0,0,158.93,7.66h-6.67V4.421h3.875V.325h3.459v4.1h3.072V7.66A25.8,25.8,0,0,1,160.12,12a13.185,13.185,0,0,0,3.847,3.211l-1.689,3.238a19.556,19.556,0,0,1-2.685-2.851ZM168.506.325h3.515V7.742h5.7v3.515h-5.7V22.106h6.227v3.488h-16.44V22.106h6.7V11.257h-5.424V7.742h5.424Z" transform="translate(-61.593 -0.132)" fill="#1a1311"/><path d="M228.591,27.248a56.969,56.969,0,0,0-11.125-10.96L220.2,13.8a40.583,40.583,0,0,1,4.816,3.654c5.535-3.764,7.057-6.726,7.721-8H213.729V5.937h24.548c-1.328,5.922-5.535,10.627-10.655,13.921a43.866,43.866,0,0,1,4.345,4.705Z" transform="translate(-86.695 -2.408)" fill="#1a1311"/><path d="M269.915,26.39h-3.9V14.351a41.652,41.652,0,0,1-9.742,4.484l-1.8-3.21a40.955,40.955,0,0,0,20.01-13.506l3.432,2.241a62.394,62.394,0,0,1-8,7.307Z" transform="translate(-103.221 -0.859)" fill="#1a1311"/><path d="M307.625,8.164V2.491h3.846V8.164h9.66v3.543h-9.744c0,3.072-.3,6.725-2.961,9.714a17.5,17.5,0,0,1-8.054,5.037L298.3,23.441c4.429-1.411,6.366-3.376,7.224-4.372,1.909-2.242,2.048-6.061,2.048-6.394l.027-.968h-10.24V8.164Z" transform="translate(-120.617 -1.011)" fill="#1a1311"/><path d="M348.625,2.423v7.86a44.155,44.155,0,0,0,12.4-4.622l.471,1.135.471-.166,1.494,2.243a61.218,61.218,0,0,1-14.834,5.064V19.5c0,1.245.443,1.522,2.076,1.522h8.69a38.268,38.268,0,0,0,5.7-.526l.166,3.875a38.305,38.305,0,0,1-5.674.332h-9.548c-4.1,0-5.231-1.522-5.231-4.068V2.423ZM362.159,5.91a29.893,29.893,0,0,0-1.743-4.4L362.6.846a23.161,23.161,0,0,1,1.827,4.29Zm3.819-.637A31.22,31.22,0,0,0,364.207.928l2.13-.719a24.3,24.3,0,0,1,1.8,4.234Z" transform="translate(-139.864 -0.085)" fill="#1a1311"/><path d="M414.405,4.317V7.7a29.9,29.9,0,0,1-1.635,9.2c-1.22,2.994-4.712,8.4-15.466,10.033l-1.441-3.465c14.3-1.579,14.44-10.393,14.523-15.659h-13.72v7.262h-3.908V4.317Z" transform="translate(-159.315 -1.751)" fill="#1a1311"/><rect width="24.557" height="3.935" transform="translate(259.956 11.269)" fill="#1a1311"/><path d="M510.655,4.905c-1.441,8.952-5.238,18.68-19.955,20.676l-1.525-3.353c7.872-1.137,14-3.715,16.74-13.886H496.63a23.922,23.922,0,0,1-6.6,6.208l-2.5-2.744a19.72,19.72,0,0,0,9.008-10.753l3.936.637a23.4,23.4,0,0,1-1.552,3.215Z" transform="translate(-197.76 -0.427)" fill="#1a1311"/><path d="M533.009,23.949a28.034,28.034,0,0,0,15.6-15.992h-14V4.41h18.958a28.381,28.381,0,0,1-5.1,11.5,96.523,96.523,0,0,1,9.23,8.01L554.572,27a80.954,80.954,0,0,0-8.315-8.287A29.849,29.849,0,0,1,535.2,27.026Z" transform="translate(-216.204 -1.789)" fill="#1a1311"/></g></g></g></g></svg>