<svg xmlns="http://www.w3.org/2000/svg" width="150.429" height="27.894" viewBox="0 0 150.429 27.894"><g transform="translate(0 0)"><path d="M306.894,329.094a3.024,3.024,0,1,1-3.029-3.02,3.024,3.024,0,0,1,3.029,3.02" transform="translate(-258.182 -304.441)" fill="#fff"/><path d="M193.545,249.217a2.241,2.241,0,0,0-1.318-3.027,2.593,2.593,0,0,0-3.122,1.384c-1.041,1.853-6.438,12.08-7.343,13.775s-2.045,4.119-2.993,3.75c-.871-.339-1.9-4.055-2.335-5.116-.775-1.886-2.354-4.126-4.987-3.557-2.013.433-3.156,2.017-4.977,5.51a33.368,33.368,0,0,1-2.537,4.426c-1.869,2.551-2.923-1.64-3.541-3.807-.828-2.909-2.341-7.024-5.64-7.019-1.843,0-3.808,1.082-6.253,5.04-1.427,2.309-4.765,8.774-5.257,9.925a2.266,2.266,0,0,0,1.153,3.079,2.5,2.5,0,0,0,3.149-1.141c2.345-3.644,2.989-5.066,4.188-6.742,1.285-1.78,3.03-3.378,4.366.9.841,2.695,2.31,7.116,6.266,7.143,2.381.017,4.846-2.039,6-4,1.3-2.216,1.631-3.4,2.625-4.469.507-.545,1.262-.742,1.976.841.69,1.53,2.115,6.368,4.654,7.422,3.584,1.488,6.956-5.761,8.122-8.073.939-1.863,7.391-15.271,7.805-16.249" transform="translate(-143.026 -246.049)" fill="#fff"/><g transform="translate(56.504 4.313)"><path d="M685.536,264.92c-.234-.7-.594-1.809-.729-2.223l-.04-.124a.8.8,0,0,0-.812-.57l-2.5,0a.485.485,0,0,0-.446.193.5.5,0,0,0-.06.46c.06.192.567,1.706.843,2.474a.865.865,0,0,0,.916.561l2.228,0c.354,0,.493-.108.565-.209a.59.59,0,0,0,.031-.562" transform="translate(-591.848 -262.003)" fill="#fff"/><path d="M666.612,262.575a.791.791,0,0,0-.8-.544l-2.5,0a.488.488,0,0,0-.444.187.511.511,0,0,0-.062.468c.063.2.569,1.714.843,2.474a.859.859,0,0,0,.916.56l2.243,0a.64.64,0,0,0,.557-.206.575.575,0,0,0,.04-.565c-.275-.822-.744-2.225-.792-2.373" transform="translate(-578.607 -262.023)" fill="#fff"/><path d="M374.744,264.665a1.071,1.071,0,0,0-.786-.269h.017l-21.8.028a.745.745,0,0,0-.569.256.8.8,0,0,0-.187.522v2.76a.756.756,0,0,0,.756.737h.123l15.887-.021h.644c.462,0,.592.084.7.226.24.315-.009.817-.042.937a13.358,13.358,0,0,1-6.651,8.487l-.187.1-.124-.171c-.811-1.112-1.421-1.88-2.126-2.77l-.1-.133a1.359,1.359,0,0,0-.98-.6h0l-3.68.006a.513.513,0,0,0-.509.32.626.626,0,0,0,.058.575,83.02,83.02,0,0,1,7.248,10.983.909.909,0,0,0,.823.49h3.99a.49.49,0,0,0,.448-.289.549.549,0,0,0,0-.539,32.508,32.508,0,0,0-2.253-3.733l-.134-.2.2-.138c4.664-3.278,9.025-7.455,9.438-16.905a.873.873,0,0,0-.2-.664" transform="translate(-351.423 -263.749)" fill="#fff"/><path d="M460.7,263.536a.738.738,0,0,0-.59-.254c-.419.005-2.4.015-3.615.019a1.037,1.037,0,0,0-.863.571c-2.069,4.737-8.071,8.312-16.321,9.691-.533.1-.789.419-.8.777l0,2.853a.709.709,0,0,0,.241.548.848.848,0,0,0,.667.2,32.012,32.012,0,0,0,9.486-2.394l.345-.158.013,10.126a.757.757,0,0,0,.782.758h.162l2.954,0a.749.749,0,0,0,.718-.706l-.019-12.35.106-.072a18.027,18.027,0,0,0,6.861-9.006.714.714,0,0,0-.131-.6" transform="translate(-414.967 -262.936)" fill="#fff"/><path d="M539.631,273.333l.013-.229,6.965-.019a.758.758,0,0,0,.534-.229.8.8,0,0,0,.216-.511l0-2.746a.748.748,0,0,0-.76-.764h-.076l-6.839,0,0-4.894a.758.758,0,0,0-.792-.761h-.108l-2.967.005a.734.734,0,0,0-.55.238.757.757,0,0,0-.2.514l.006,4.9-10.45.011a.767.767,0,0,0-.574.232.786.786,0,0,0-.212.551l0,2.759a.75.75,0,0,0,.775.732h.1l10.322-.02-.016.259c-.367,5.977-3.233,7.683-8.621,8.786-.47.112-.737.342-.737.752l0,2.84a.637.637,0,0,0,.24.512.8.8,0,0,0,.568.181c9.024-1.249,12.7-5.027,13.165-13.107" transform="translate(-477.22 -262.863)" fill="#fff"/><path d="M642.111,268.949a.747.747,0,0,0-.493-.2h-.129l-15.113.022-.009-4.9a.763.763,0,0,0-.215-.549.8.8,0,0,0-.584-.231h-.024l-2.888,0a.754.754,0,0,0-.749.76l.024,16.406c0,4.083,1.61,5.8,6.093,5.8h.359l13.626-.025a.757.757,0,0,0,.7-.736l0-2.79a.758.758,0,0,0-.752-.763h0l-12.445.013h-.016a4.049,4.049,0,0,1-2.447-.469c-.606-.507-.665-1.237-.653-2.379l-.009-5.9,15.2-.022a.754.754,0,0,0,.763-.766l0-2.736a.724.724,0,0,0-.23-.543" transform="translate(-548.786 -262.798)" fill="#fff"/></g></g></svg>